<svg xmlns="http://www.w3.org/2000/svg" style="display: none;">

    <symbol id="discord" viewBox="0 0 24 24">
        <path d="M20.317 4.4921C18.7873 3.80147 17.147 3.29265 15.4319 3.00122C15.4007 2.9956 15.3695 3.00965 15.3534 3.03777C15.1424 3.40697 14.9087 3.88862 14.7451 4.26719C12.9004 3.99545 11.0652 3.99545 9.25832 4.26719C9.09465 3.8802 8.85248 3.40697 8.64057 3.03777C8.62449 3.01059 8.59328 2.99654 8.56205 3.00122C6.84791 3.29172 5.20756 3.80054 3.67693 4.4921C3.66368 4.49772 3.65233 4.5071 3.64479 4.51928C0.533392 9.09311 -0.31895 13.5545 0.0991801 17.9606C0.101072 17.9822 0.11337 18.0028 0.130398 18.0159C2.18321 19.4993 4.17171 20.3998 6.12328 20.9967C6.15451 21.0061 6.18761 20.9949 6.20748 20.9695C6.66913 20.3492 7.08064 19.6952 7.43348 19.0073C7.4543 18.967 7.43442 18.9192 7.39186 18.9033C6.73913 18.6597 6.1176 18.3626 5.51973 18.0253C5.47244 17.9981 5.46865 17.9316 5.51216 17.8997C5.63797 17.8069 5.76382 17.7104 5.88396 17.613C5.90569 17.5952 5.93598 17.5914 5.96153 17.6026C9.88928 19.3672 14.1415 19.3672 18.023 17.6026C18.0485 17.5905 18.0788 17.5942 18.1015 17.612C18.2216 17.7095 18.3475 17.8069 18.4742 17.8997C18.5177 17.9316 18.5149 17.9981 18.4676 18.0253C17.8697 18.3692 17.2482 18.6597 16.5945 18.9024C16.552 18.9183 16.533 18.967 16.5538 19.0073C16.9143 19.6942 17.3258 20.3483 17.7789 20.9686C17.7978 20.9949 17.8319 21.0061 17.8631 20.9967C19.8241 20.3998 21.8126 19.4993 23.8654 18.0159C23.8834 18.0028 23.8948 17.9831 23.8967 17.9616C24.3971 12.8676 23.0585 8.4428 20.3482 4.52021C20.3416 4.5071 20.3303 4.49772 20.317 4.4921ZM8.02002 15.2778C6.8375 15.2778 5.86313 14.2095 5.86313 12.8976C5.86313 11.5857 6.8186 10.5175 8.02002 10.5175C9.23087 10.5175 10.1958 11.5951 10.1769 12.8976C10.1769 14.2095 9.22141 15.2778 8.02002 15.2778ZM15.9947 15.2778C14.8123 15.2778 13.8379 14.2095 13.8379 12.8976C13.8379 11.5857 14.7933 10.5175 15.9947 10.5175C17.2056 10.5175 18.1705 11.5951 18.1516 12.8976C18.1516 14.2095 17.2056 15.2778 15.9947 15.2778Z"/>
    </symbol>

    <symbol id="github" viewBox="0 0 16 16">
        <path d="M8 0C3.58 0 0 3.58 0 8c0 3.54 2.29 6.53 5.47 7.59.4.07.55-.17.55-.38 0-.19-.01-.82-.01-1.49-2.01.37-2.53-.49-2.69-.94-.09-.23-.48-.94-.82-1.13-.28-.15-.68-.52-.01-.53.63-.01 1.08.58 1.23.82.72 1.21 1.87.87 2.33.66.07-.52.28-.87.51-1.07-1.78-.2-3.64-.89-3.64-3.95 0-.87.31-1.59.82-2.15-.08-.2-.36-1.02.08-2.12 0 0 .67-.21 2.2.82.64-.18 1.32-.27 2-.27s1.36.09 2 .27c1.53-1.04 2.2-.82 2.2-.82.44 1.1.16 1.92.08 2.12.51.56.82 1.27.82 2.15 0 3.07-1.87 3.75-3.65 3.95.29.25.54.73.54 1.48 0 1.07-.01 1.93-.01 2.2 0 .21.15.46.55.38A8.01 8.01 0 0 0 16 8c0-4.42-3.58-8-8-8"/>
    </symbol>

    <symbol id="settings" viewBox="0 0 16 16">
        <path d="M8 4.754a3.246 3.246 0 1 0 0 6.492 3.246 3.246 0 0 0 0-6.492M5.754 8a2.246 2.246 0 1 1 4.492 0 2.246 2.246 0 0 1-4.492 0"/>
        <path d="M9.796 1.343c-.527-1.79-3.065-1.79-3.592 0l-.094.319a.873.873 0 0 1-1.255.52l-.292-.16c-1.64-.892-3.433.902-2.54 2.541l.159.292a.873.873 0 0 1-.52 1.255l-.319.094c-1.79.527-1.79 3.065 0 3.592l.319.094a.873.873 0 0 1 .52 1.255l-.16.292c-.892 1.64.901 3.434 2.541 2.54l.292-.159a.873.873 0 0 1 1.255.52l.094.319c.527 1.79 3.065 1.79 3.592 0l.094-.319a.873.873 0 0 1 1.255-.52l.292.16c1.64.893 3.434-.902 2.54-2.541l-.159-.292a.873.873 0 0 1 .52-1.255l.319-.094c1.79-.527 1.79-3.065 0-3.592l-.319-.094a.873.873 0 0 1-.52-1.255l.16-.292c.893-1.64-.902-3.433-2.541-2.54l-.292.159a.873.873 0 0 1-1.255-.52zm-2.633.283c.246-.835 1.428-.835 1.674 0l.094.319a1.873 1.873 0 0 0 2.693 1.115l.291-.16c.764-.415 1.6.42 1.184 1.185l-.159.292a1.873 1.873 0 0 0 1.116 2.692l.318.094c.835.246.835 1.428 0 1.674l-.319.094a1.873 1.873 0 0 0-1.115 2.693l.16.291c.415.764-.42 1.6-1.185 1.184l-.291-.159a1.873 1.873 0 0 0-2.693 1.116l-.094.318c-.246.835-1.428.835-1.674 0l-.094-.319a1.873 1.873 0 0 0-2.692-1.115l-.292.16c-.764.415-1.6-.42-1.184-1.185l.159-.291A1.873 1.873 0 0 0 1.945 8.93l-.319-.094c-.835-.246-.835-1.428 0-1.674l.319-.094A1.873 1.873 0 0 0 3.06 4.377l-.16-.292c-.415-.764.42-1.6 1.185-1.184l.292.159a1.873 1.873 0 0 0 2.692-1.115z"/>
    </symbol>

    <symbol id="help" viewBox="0 0 16 16">
        <path fill-rule="evenodd" d="M4.475 5.458c-.284 0-.514-.237-.47-.517C4.28 3.24 5.576 2 7.825 2c2.25 0 3.767 1.36 3.767 3.215 0 1.344-.665 2.288-1.79 2.973-1.1.659-1.414 1.118-1.414 2.01v.03a.5.5 0 0 1-.5.5h-.77a.5.5 0 0 1-.5-.495l-.003-.2c-.043-1.221.477-2.001 1.645-2.712 1.03-.632 1.397-1.135 1.397-2.028 0-.979-.758-1.698-1.926-1.698-1.009 0-1.71.529-1.938 1.402-.066.254-.278.461-.54.461h-.777ZM7.496 14c.622 0 1.095-.474 1.095-1.09 0-.618-.473-1.092-1.095-1.092-.606 0-1.087.474-1.087 1.091S6.89 14 7.496 14"/>
    </symbol>

    <symbol id="docs" viewBox="0 0 16 16">
        <path d="M14 4.5V14a2 2 0 0 1-2 2H4a2 2 0 0 1-2-2V2a2 2 0 0 1 2-2h5.5zm-3 0A1.5 1.5 0 0 1 9.5 3V1H4a1 1 0 0 0-1 1v12a1 1 0 0 0 1 1h8a1 1 0 0 0 1-1V4.5z"/>
    </symbol>

    <symbol id="accounts" viewBox="0 0 24 24">
        <path d="M12.4142 5H21C21.5523 5 22 5.44772 22 6V20C22 20.5523 21.5523 21 21 21H3C2.44772 21 2 20.5523 2 20V4C2 3.44772 2.44772 3 3 3H10.4142L12.4142 5ZM4 5V19H20V7H11.5858L9.58579 5H4ZM8 18C8 15.7909 9.79086 14 12 14C14.2091 14 16 15.7909 16 18H8ZM12 13C10.6193 13 9.5 11.8807 9.5 10.5C9.5 9.11929 10.6193 8 12 8C13.3807 8 14.5 9.11929 14.5 10.5C14.5 11.8807 13.3807 13 12 13Z"/>
    </symbol>

    <symbol id="home" viewBox="0 0 24 24">
        <path d="M18 20a6 6 0 0 0-12 0"/>
        <circle cx="12" cy="10" r="4"/>
        <circle cx="12" cy="12" r="10"/>
    </symbol>

    <symbol id="chevron" viewBox="0 0 16 16">
        <path fill-rule="evenodd" d="M1.646 4.646a.5.5 0 0 1 .708 0L8 10.293l5.646-5.647a.5.5 0 0 1 .708.708l-6 6a.5.5 0 0 1-.708 0l-6-6a.5.5 0 0 1 0-.708"/>
    </symbol>

    <symbol id="arrow-up-right" viewBox="0 0 24 24">
        <path d="M7 7h10v10"/>
        <path d="M7 17 17 7"/>
    </symbol>

    <symbol id="user" viewBox="0 0 24 24">
        <path d="M20 22H18V20C18 18.3431 16.6569 17 15 17H9C7.34315 17 6 18.3431 6 20V22H4V20C4 17.2386 6.23858 15 9 15H15C17.7614 15 20 17.2386 20 20V22ZM12 13C8.68629 13 6 10.3137 6 7C6 3.68629 8.68629 1 12 1C15.3137 1 18 3.68629 18 7C18 10.3137 15.3137 13 12 13ZM12 11C14.2091 11 16 9.20914 16 7C16 4.79086 14.2091 3 12 3C9.79086 3 8 4.79086 8 7C8 9.20914 9.79086 11 12 11Z"/>
    </symbol>

    <symbol id="plus" viewBox="0 0 24 24">
        <line x1="12" y1="5" x2="12" y2="19"/>
        <line x1="5" y1="12" x2="19" y2="12"/>
    </symbol>

    <symbol id="trashcan" viewBox="0 0 24 24">
        <path d="M6 19c0 1.1.9 2 2 2h8c1.1 0 2-.9 2-2V7H6v12zM8 9h8v10H8V9zm7.5-5-1-1h-5l-1 1H5v2h14V4h-3.5z"/>
    </symbol>

    <symbol id="tick" viewBox="0 0 24 24">
        <path d="M9 16.17 4.83 12l-1.42 1.41L9 19 21 7l-1.41-1.41z"/>
    </symbol>

    <symbol id="cross" viewBox="0 0 24 24">
        <path d="M19 6.41 17.59 5 12 10.59 6.41 5 5 6.41 10.59 12 5 17.59 6.41 19 12 13.41 17.59 19 19 17.59 13.41 12z"/>
    </symbol>

    <symbol id="hashtag" viewBox="0 0 24 24">
        <path d="M7.78428 14L8.2047 10H4V8H8.41491L8.94043 3H10.9514L10.4259 8H14.4149L14.9404 3H16.9514L16.4259 8H20V10H16.2157L15.7953 14H20V16H15.5851L15.0596 21H13.0486L13.5741 16H9.58509L9.05957 21H7.04855L7.57407 16H4V14H7.78428ZM9.7953 14H13.7843L14.2047 10H10.2157L9.7953 14Z"/>
    </symbol>

    <symbol id="locked" viewBox="0 0 24 24">
        <path d="M12 17c1.1 0 2-.9 2-2s-.9-2-2-2-2 .9-2 2 .9 2 2 2zm6-9h-1V6c0-2.76-2.24-5-5-5S7 3.24 7 6v2H6c-1.1 0-2 .9-2 2v10c0 1.1.9 2 2 2h12c1.1 0 2-.9 2-2V10c0-1.1-.9-2-2-2zM8.9 6c0-1.71 1.39-3.1 3.1-3.1s3.1 1.39 3.1 3.1v2H8.9V6zM18 20H6V10h12v10z"/>
    </symbol>

    <symbol id="stop" viewBox="0 0 24 24">
       <path d="M12 2C6.48 2 2 6.48 2 12s4.48 10 10 10 10-4.48 10-10S17.52 2 12 2zM4 12c0-4.42 3.58-8 8-8 1.85 0 3.55.63 4.9 1.69L5.69 16.9A7.902 7.902 0 0 1 4 12zm8 8c-1.85 0-3.55-.63-4.9-1.69L18.31 7.1A7.902 7.902 0 0 1 20 12c0 4.42-3.58 8-8 8z"/>
    </symbol>

    <symbol id="report" viewBox="0 0 24 24">
        <path d="M1 21h22L12 2 1 21zm12-3h-2v-2h2v2zm0-4h-2v-4h2v4z"/>
    </symbol>

    <symbol id="logout" viewBox="0 0 24 24">
        <path d="m17 7-1.41 1.41L18.17 11H8v2h10.17l-2.58 2.58L17 17l5-5zM4 5h8V3H4c-1.1 0-2 .9-2 2v14c0 1.1.9 2 2 2h8v-2H4V5z"/>
    </symbol>


    <symbol id="clan-shield" viewBox="0 0 24 24">
        <path d="M3.78307 2.82598L12 1L20.2169 2.82598C20.6745 2.92766 21 3.33347 21 3.80217V13.7889C21 15.795 19.9974 17.6684 18.3282 18.7812L12 23L5.6718 18.7812C4.00261 17.6684 3 15.795 3 13.7889V3.80217C3 3.33347 3.32553 2.92766 3.78307 2.82598ZM5 4.60434V13.7889C5 15.1263 5.6684 16.3752 6.7812 17.1171L12 20.5963L17.2188 17.1171C18.3316 16.3752 19 15.1263 19 13.7889V4.60434L12 3.04879L5 4.60434Z"/>
    </symbol>

    <symbol id="spinner" viewBox="0 0 16 16">
        <path d="M8 16c-2.137 0-4.146-0.832-5.657-2.343s-2.343-3.52-2.343-5.657c0-1.513 0.425-2.986 1.228-4.261 0.781-1.239 1.885-2.24 3.193-2.895l0.672 1.341c-1.063 0.533-1.961 1.347-2.596 2.354-0.652 1.034-0.997 2.231-0.997 3.461 0 3.584 2.916 6.5 6.5 6.5s6.5-2.916 6.5-6.5c0-1.23-0.345-2.426-0.997-3.461-0.635-1.008-1.533-1.822-2.596-2.354l0.672-1.341c1.308 0.655 2.412 1.656 3.193 2.895 0.803 1.274 1.228 2.748 1.228 4.261 0 2.137-0.832 4.146-2.343 5.657s-3.52 2.343-5.657 2.343z"/>
    </symbol>

    <symbol id="ellipsis" viewBox="0 0 24 24">
        <circle cx="12" cy="12" r="1"/>
        <circle cx="19" cy="12" r="1"/>
        <circle cx="5" cy="12" r="1"/>
    </symbol>

    <symbol id="swords" viewBox="0 0 24 24">
        <polyline points="14.5 17.5 3 6 3 3 6 3 17.5 14.5"/>
        <line x1="13" x2="19" y1="19" y2="13"/>
        <line x1="16" x2="20" y1="16" y2="20"/>
        <line x1="19" x2="21" y1="21" y2="19"/>
        <polyline points="14.5 6.5 18 3 21 3 21 6 17.5 9.5"/>
        <line x1="5" x2="9" y1="14" y2="18"/>
        <line x1="7" x2="4" y1="17" y2="20"/>
        <line x1="3" x2="5" y1="19" y2="21"/>
    </symbol>
    
</svg>